<svg xmlns="http://www.w3.org/2000/svg" version="1.1" xmlns:xlink="http://www.w3.org/1999/xlink" xmlns:svgjs="http://svgjs.dev/svgjs" width="1000" height="1000" viewBox="0 0 1000 1000"><rect width="1000" height="1000" fill="#ffffff"></rect><g transform="matrix(0.7,0,0,0.7,149.57575757575756,416.5168684228041)"><svg viewBox="0 0 396 95" data-background-color="#6936f5" preserveAspectRatio="xMidYMid meet" height="239" width="1000" xmlns="http://www.w3.org/2000/svg" xmlns:xlink="http://www.w3.org/1999/xlink"><g id="tight-bounds" transform="matrix(1,0,0,1,0.2400000000000091,-0.0947549322557677)"><svg viewBox="0 0 395.52 95.18950986451154" height="95.18950986451154" width="395.52"><g><svg viewBox="0 0 395.52 95.18950986451154" height="95.18950986451154" width="395.52"><g><svg viewBox="0 0 395.52 95.18950986451154" height="95.18950986451154" width="395.52"><g><svg viewBox="0 0 395.52 95.18950986451154" height="95.18950986451154" width="395.52"><g><svg viewBox="0 0 395.52 95.18950986451154" height="95.18950986451154" width="395.52"><g><svg viewBox="0 0 395.52 95.18950986451154" height="95.18950986451154" width="395.52"><g><svg viewBox="0 0 395.52 118.94202139291656" height="118.94202139291656" width="395.52"><g transform="matrix(1,0,0,1,73.47559999999999,0)"><svg width="248.5688" viewBox="4 -33.25 210.3300018310547 34" height="40.17750986451153" data-palette-color="#ffffff"><path d="M20.9-6.25L20.9-6.25Q20.9 0.75 12.45 0.75 4 0.75 4-6.25L4-6.25 4-10.5 7.5-10.5 7.5-6.05Q7.5-4.25 8.75-3.25 10-2.25 12.45-2.25 14.9-2.25 16.15-3.25 17.4-4.25 17.4-5.98 17.4-7.7 17.03-8.72 16.65-9.75 15.5-10.9L15.5-10.9 6.7-19.5Q5.15-21.05 4.58-22.53 4-24 4-26.25L4-26.25Q4-29.6 6.08-31.43 8.15-33.25 12.35-33.25L12.35-33.25Q20.4-33.25 20.4-26.25L20.4-26.25 20.4-22 16.9-22 16.9-26.45Q16.9-28.25 15.73-29.25 14.55-30.25 12.2-30.25 9.85-30.25 8.68-29.25 7.5-28.25 7.5-26.5 7.5-24.75 7.85-23.75 8.2-22.75 9.4-21.65L9.4-21.65 18.35-13.05Q19.8-11.45 20.35-9.98 20.9-8.5 20.9-6.25ZM33.4-15L33.4 0 29.9 0 29.9-32.5 33.4-32.5 33.4-18 43.25-18 43.25-32.5 46.75-32.5 46.75 0 43.25 0 43.25-15 33.4-15ZM73-26.25L73-26.25 73-6.25Q73-2.9 70.87-1.07 68.75 0.75 64.52 0.75 60.3 0.75 58.15-1.07 56-2.9 56-6.25L56-6.25 56-26.25Q56-29.6 58.12-31.43 60.25-33.25 64.47-33.25 68.7-33.25 70.84-31.43 73-29.6 73-26.25ZM69.5-6.25L69.5-6.25 69.5-26.25Q69.5-30.25 64.5-30.25 59.5-30.25 59.5-26.25L59.5-26.25 59.5-6.25Q59.5-2.25 64.5-2.25 69.5-2.25 69.5-6.25ZM85.74-11.5L85.74 0 82.24 0 82.24-32.5 89.79-32.5Q93.69-32.5 95.72-30.65 97.74-28.8 97.74-25.5L97.74-25.5 97.74-18.5Q97.74-13.4 93.34-12L93.34-12 99.49 0 95.64 0 89.79-11.5 85.74-11.5ZM94.24-18.5L94.24-18.5 94.24-25.5Q94.24-27.4 93.09-28.45 91.94-29.5 89.79-29.5L89.79-29.5 85.74-29.5 85.74-14.5 89.79-14.5Q94.24-14.5 94.24-18.5ZM102.99-32.5L119.49-32.5 119.49-29.5 112.99-29.5 112.99 0 109.49 0 109.49-29.5 102.99-29.5 102.99-32.5ZM140.74-3L140.74 0 125.99 0 125.99-32.5 140.24-32.5 140.24-29.5 129.49-29.5 129.49-18 138.24-18 138.24-15 129.49-15 129.49-3 140.74-3ZM151.74-25L151.74 0 148.24 0 148.24-32.5 151.74-32.5 162.59-7.5 162.59-32.5 166.09-32.5 166.09 0 162.59 0 151.74-25ZM190.83-3L190.83 0 176.08 0 176.08-32.5 190.33-32.5 190.33-29.5 179.58-29.5 179.58-18 188.33-18 188.33-15 179.58-15 179.58-3 190.83-3ZM206.38 0L206.38 0 198.33 0 198.33-32.5 206.38-32.5Q210.28-32.5 212.31-30.65 214.33-28.8 214.33-25.5L214.33-25.5 214.33-7Q214.33-3.65 212.33-1.83 210.33 0 206.38 0ZM210.83-7L210.83-7 210.83-25.5Q210.83-27.1 209.66-28.3 208.48-29.5 206.38-29.5L206.38-29.5 201.83-29.5 201.83-3 206.38-3Q208.48-3 209.66-4.17 210.83-5.35 210.83-7Z" opacity="1" transform="matrix(1,0,0,1,0,0)" fill="#000000" class="undefined-o-0" data-fill-palette-color="primary"></path></svg></g><g><svg><g></g><g></g></svg></g><g><svg><g></g><g><svg></svg></g></svg></g><g transform="matrix(1,0,0,1,73.47559999999999,40.17750986451153)" id="text-0"><svg viewBox="0 0 248.5688 55.01199999999999" height="55.01199999999999" width="248.5688"><g><svg xmlns="http://www.w3.org/2000/svg" xmlns:xlink="http://www.w3.org/1999/xlink" version="1.1" x="0" y="3.552713678800501e-15" viewBox="6.576000213623047 6.576000213623047 86.84700012207031 86.84700012207031" enable-background="new 0 0 100 100" xml:space="preserve" height="55.011999999999986" width="55.011999999999986" class="icon-a-0" data-fill-palette-color="accent" id="a-0"><path d="M23.653 93.423L6.576 76.347 21.214 61.71l-9.043-9.044h35.164V87.83l-9.043-9.044L23.653 93.423zM11.456 76.347l12.197 12.197 14.637-14.637 5.593 5.594V56.116H20.499l5.594 5.594L11.456 76.347z" fill="#000000" data-fill-palette-color="accent"></path><path d="M47.334 47.334H12.17l9.044-9.043L6.577 23.653 23.653 6.577l14.637 14.637 9.043-9.044V47.334zM20.499 43.884h23.385V20.499l-5.593 5.594L23.653 11.455 11.455 23.653l14.638 14.637L20.499 43.884z" fill="#000000" data-fill-palette-color="accent"></path><path d="M87.83 47.334H52.666V12.17l9.044 9.043L76.347 6.576l17.076 17.077L78.786 38.291 87.83 47.334zM56.116 43.884h23.385l-5.594-5.593 14.637-14.637L76.347 11.456 61.71 26.093l-5.594-5.594V43.884z" fill="#000000" data-fill-palette-color="accent"></path><path d="M76.347 93.423L61.71 78.786l-9.044 9.044V52.666H87.83l-9.044 9.044 14.637 14.637L76.347 93.423zM61.71 73.907l14.637 14.637 12.197-12.197L73.907 61.71l5.594-5.594H56.116v23.385L61.71 73.907z" fill="#000000" data-fill-palette-color="accent"></path></svg></g><g transform="matrix(1,0,0,1,67.99999999999999,0)"><svg width="180.5688" viewBox="5 -33.25 111.58999633789062 34" height="55.01199999999999" data-palette-color="#ffffff"><path d="M8.5-11.5L8.5 0 5 0 5-32.5 12.55-32.5Q16.45-32.5 18.48-30.65 20.5-28.8 20.5-25.5L20.5-25.5 20.5-18.5Q20.5-13.4 16.1-12L16.1-12 22.25 0 18.4 0 12.55-11.5 8.5-11.5ZM17-18.5L17-18.5 17-25.5Q17-27.4 15.85-28.45 14.7-29.5 12.55-29.5L12.55-29.5 8.5-29.5 8.5-14.5 12.55-14.5Q17-14.5 17-18.5ZM44-3L44 0 29.25 0 29.25-32.5 43.5-32.5 43.5-29.5 32.75-29.5 32.75-18 41.5-18 41.5-15 32.75-15 32.75-3 44-3ZM48.5 0L55.85-32.5 61.1-32.5 68.45 0 64.95 0 63.25-7.5 53.7-7.5 52 0 48.5 0ZM62.55-10.5L58.45-28.6 54.35-10.5 62.55-10.5ZM83.49 0L83.49 0 75.44 0 75.44-32.5 83.49-32.5Q87.39-32.5 89.42-30.65 91.44-28.8 91.44-25.5L91.44-25.5 91.44-7Q91.44-3.65 89.44-1.83 87.44 0 83.49 0ZM87.94-7L87.94-7 87.94-25.5Q87.94-27.1 86.77-28.3 85.59-29.5 83.49-29.5L83.49-29.5 78.94-29.5 78.94-3 83.49-3Q85.59-3 86.77-4.17 87.94-5.35 87.94-7ZM116.59-6.25L116.59-6.25Q116.59 0.75 108.14 0.75 99.69 0.75 99.69-6.25L99.69-6.25 99.69-10.5 103.19-10.5 103.19-6.05Q103.19-4.25 104.44-3.25 105.69-2.25 108.14-2.25 110.59-2.25 111.84-3.25 113.09-4.25 113.09-5.98 113.09-7.7 112.72-8.72 112.34-9.75 111.19-10.9L111.19-10.9 102.39-19.5Q100.84-21.05 100.27-22.53 99.69-24 99.69-26.25L99.69-26.25Q99.69-29.6 101.77-31.43 103.84-33.25 108.04-33.25L108.04-33.25Q116.09-33.25 116.09-26.25L116.09-26.25 116.09-22 112.59-22 112.59-26.45Q112.59-28.25 111.42-29.25 110.24-30.25 107.89-30.25 105.54-30.25 104.37-29.25 103.19-28.25 103.19-26.5 103.19-24.75 103.54-23.75 103.89-22.75 105.09-21.65L105.09-21.65 114.04-13.05Q115.49-11.45 116.04-9.98 116.59-8.5 116.59-6.25Z" opacity="1" transform="matrix(1,0,0,1,0,0)" fill="#000000" class="undefined-o-1" data-fill-palette-color="primary"></path></svg></g></svg></g></svg></g></svg></g></svg></g></svg></g></svg></g></svg></g><defs></defs></svg><rect width="395.52" height="95.18950986451154" fill="none" stroke="none" visibility="hidden"></rect></g></svg></g></svg>